<mxfile host="Electron" agent="Mozilla/5.0 (Windows NT 10.0; Win64; x64) AppleWebKit/537.36 (KHTML, like Gecko) draw.io/24.7.17 Chrome/128.0.6613.36 Electron/32.0.1 Safari/537.36" version="24.7.17">
  <diagram name="Page-1" id="kyOh9JgpY1f4It5ZR0Ub">
    <mxGraphModel dx="3936" dy="2034" grid="1" gridSize="10" guides="1" tooltips="1" connect="1" arrows="1" fold="1" page="1" pageScale="1" pageWidth="1100" pageHeight="850" background="none" math="0" shadow="1">
      <root>
        <mxCell id="0" />
        <mxCell id="1" parent="0" />
        <mxCell id="_YORlgkDfHFWjirhK1Dx-211" value="User Interface" style="swimlane;fontStyle=2;align=center;verticalAlign=top;childLayout=stackLayout;horizontal=1;startSize=26;horizontalStack=0;resizeParent=1;resizeLast=0;collapsible=1;marginBottom=0;rounded=0;shadow=0;strokeWidth=1;" parent="1" vertex="1">
          <mxGeometry y="150" width="170" height="138" as="geometry">
            <mxRectangle x="230" y="140" width="160" height="26" as="alternateBounds" />
          </mxGeometry>
        </mxCell>
        <mxCell id="_YORlgkDfHFWjirhK1Dx-215" value="" style="line;html=1;strokeWidth=1;align=left;verticalAlign=middle;spacingTop=-1;spacingLeft=3;spacingRight=3;rotatable=0;labelPosition=right;points=[];portConstraint=eastwest;" parent="_YORlgkDfHFWjirhK1Dx-211" vertex="1">
          <mxGeometry y="26" width="170" height="8" as="geometry" />
        </mxCell>
        <mxCell id="_YORlgkDfHFWjirhK1Dx-288" value="Sandwich shop menu" style="text;html=1;align=center;verticalAlign=middle;resizable=0;points=[];autosize=1;strokeColor=none;fillColor=none;fontSize=16;" parent="_YORlgkDfHFWjirhK1Dx-211" vertex="1">
          <mxGeometry y="34" width="170" height="30" as="geometry" />
        </mxCell>
        <mxCell id="_YORlgkDfHFWjirhK1Dx-217" value="abstract toppings " style="swimlane;fontStyle=0;align=center;verticalAlign=top;childLayout=stackLayout;horizontal=1;startSize=26;horizontalStack=0;resizeParent=1;resizeLast=0;collapsible=1;marginBottom=0;rounded=0;shadow=0;strokeWidth=1;" parent="1" vertex="1">
          <mxGeometry x="-340" y="360" width="260" height="165" as="geometry">
            <mxRectangle x="130" y="380" width="160" height="26" as="alternateBounds" />
          </mxGeometry>
        </mxCell>
        <mxCell id="_YORlgkDfHFWjirhK1Dx-218" value="-  toppingName: String" style="text;align=left;verticalAlign=top;spacingLeft=4;spacingRight=4;overflow=hidden;rotatable=0;points=[[0,0.5],[1,0.5]];portConstraint=eastwest;" parent="_YORlgkDfHFWjirhK1Dx-217" vertex="1">
          <mxGeometry y="26" width="260" height="26" as="geometry" />
        </mxCell>
        <mxCell id="_YORlgkDfHFWjirhK1Dx-219" value="&#xa;" style="text;align=left;verticalAlign=top;spacingLeft=4;spacingRight=4;overflow=hidden;rotatable=0;points=[[0,0.5],[1,0.5]];portConstraint=eastwest;rounded=0;shadow=0;html=0;" parent="_YORlgkDfHFWjirhK1Dx-217" vertex="1">
          <mxGeometry y="52" width="260" height="26" as="geometry" />
        </mxCell>
        <mxCell id="_YORlgkDfHFWjirhK1Dx-220" value="" style="line;html=1;strokeWidth=1;align=left;verticalAlign=middle;spacingTop=-1;spacingLeft=3;spacingRight=3;rotatable=0;labelPosition=right;points=[];portConstraint=eastwest;" parent="_YORlgkDfHFWjirhK1Dx-217" vertex="1">
          <mxGeometry y="78" width="260" height="8" as="geometry" />
        </mxCell>
        <mxCell id="_YORlgkDfHFWjirhK1Dx-248" value="&lt;span style=&quot;font-size: 12px; text-align: left;&quot;&gt;+ calculatePrice(int size);&lt;/span&gt;" style="text;html=1;align=center;verticalAlign=middle;resizable=0;points=[];autosize=1;strokeColor=none;fillColor=none;fontSize=16;" parent="_YORlgkDfHFWjirhK1Dx-217" vertex="1">
          <mxGeometry y="86" width="260" height="30" as="geometry" />
        </mxCell>
        <mxCell id="_YORlgkDfHFWjirhK1Dx-223" value="" style="endArrow=block;endSize=10;endFill=0;shadow=0;strokeWidth=1;rounded=0;curved=0;edgeStyle=elbowEdgeStyle;elbow=vertical;fontSize=12;" parent="1" source="_YORlgkDfHFWjirhK1Dx-217" edge="1">
          <mxGeometry width="160" relative="1" as="geometry">
            <mxPoint x="100" y="103" as="sourcePoint" />
            <mxPoint x="-310" y="240" as="targetPoint" />
          </mxGeometry>
        </mxCell>
        <mxCell id="_YORlgkDfHFWjirhK1Dx-224" value="Main     Kiosk " style="swimlane;fontStyle=0;align=center;verticalAlign=top;childLayout=stackLayout;horizontal=1;startSize=26;horizontalStack=0;resizeParent=1;resizeLast=0;collapsible=1;marginBottom=0;rounded=0;shadow=0;strokeWidth=1;" parent="1" vertex="1">
          <mxGeometry x="-30" y="-8" width="160" height="70" as="geometry">
            <mxRectangle x="340" y="380" width="170" height="26" as="alternateBounds" />
          </mxGeometry>
        </mxCell>
        <mxCell id="_YORlgkDfHFWjirhK1Dx-225" value="display();" style="text;align=left;verticalAlign=top;spacingLeft=4;spacingRight=4;overflow=hidden;rotatable=0;points=[[0,0.5],[1,0.5]];portConstraint=eastwest;" parent="_YORlgkDfHFWjirhK1Dx-224" vertex="1">
          <mxGeometry y="26" width="160" height="26" as="geometry" />
        </mxCell>
        <mxCell id="_YORlgkDfHFWjirhK1Dx-226" value="" style="line;html=1;strokeWidth=1;align=left;verticalAlign=middle;spacingTop=-1;spacingLeft=3;spacingRight=3;rotatable=0;labelPosition=right;points=[];portConstraint=eastwest;" parent="_YORlgkDfHFWjirhK1Dx-224" vertex="1">
          <mxGeometry y="52" width="160" height="8" as="geometry" />
        </mxCell>
        <mxCell id="_YORlgkDfHFWjirhK1Dx-227" value="Display menu" style="endArrow=block;endSize=10;endFill=0;shadow=0;strokeWidth=1;rounded=0;curved=0;edgeStyle=elbowEdgeStyle;elbow=vertical;fontSize=12;" parent="1" source="_YORlgkDfHFWjirhK1Dx-224" target="_YORlgkDfHFWjirhK1Dx-211" edge="1">
          <mxGeometry width="160" relative="1" as="geometry">
            <mxPoint x="110" y="273" as="sourcePoint" />
            <mxPoint x="210" y="171" as="targetPoint" />
            <Array as="points">
              <mxPoint x="-44" y="5" />
            </Array>
          </mxGeometry>
        </mxCell>
        <mxCell id="duyvFCxEx_6cM0iOeqCo-8" style="edgeStyle=orthogonalEdgeStyle;rounded=0;orthogonalLoop=1;jettySize=auto;html=1;exitX=1;exitY=1;exitDx=0;exitDy=0;entryX=0;entryY=0.75;entryDx=0;entryDy=0;" edge="1" parent="1" source="_YORlgkDfHFWjirhK1Dx-242" target="_YORlgkDfHFWjirhK1Dx-211">
          <mxGeometry relative="1" as="geometry" />
        </mxCell>
        <mxCell id="_YORlgkDfHFWjirhK1Dx-242" value="sandwich" style="swimlane;fontStyle=0;align=center;verticalAlign=top;childLayout=stackLayout;horizontal=1;startSize=26;horizontalStack=0;resizeParent=1;resizeLast=0;collapsible=1;marginBottom=0;rounded=0;shadow=0;strokeWidth=1;" parent="1" vertex="1">
          <mxGeometry x="-460" y="-8" width="290" height="250" as="geometry">
            <mxRectangle x="130" y="380" width="160" height="26" as="alternateBounds" />
          </mxGeometry>
        </mxCell>
        <mxCell id="_YORlgkDfHFWjirhK1Dx-243" value="- String bread Type&#xa;" style="text;align=left;verticalAlign=top;spacingLeft=4;spacingRight=4;overflow=hidden;rotatable=0;points=[[0,0.5],[1,0.5]];portConstraint=eastwest;" parent="_YORlgkDfHFWjirhK1Dx-242" vertex="1">
          <mxGeometry y="26" width="290" height="26" as="geometry" />
        </mxCell>
        <mxCell id="_YORlgkDfHFWjirhK1Dx-245" value="" style="line;html=1;strokeWidth=1;align=left;verticalAlign=middle;spacingTop=-1;spacingLeft=3;spacingRight=3;rotatable=0;labelPosition=right;points=[];portConstraint=eastwest;" parent="_YORlgkDfHFWjirhK1Dx-242" vertex="1">
          <mxGeometry y="52" width="290" height="8" as="geometry" />
        </mxCell>
        <mxCell id="_YORlgkDfHFWjirhK1Dx-244" value="- String sandwich Size " style="text;align=left;verticalAlign=top;spacingLeft=4;spacingRight=4;overflow=hidden;rotatable=0;points=[[0,0.5],[1,0.5]];portConstraint=eastwest;rounded=0;shadow=0;html=0;" parent="_YORlgkDfHFWjirhK1Dx-242" vertex="1">
          <mxGeometry y="60" width="290" height="26" as="geometry" />
        </mxCell>
        <mxCell id="_YORlgkDfHFWjirhK1Dx-246" value="- boolean isToasted " style="text;align=left;verticalAlign=top;spacingLeft=4;spacingRight=4;overflow=hidden;rotatable=0;points=[[0,0.5],[1,0.5]];portConstraint=eastwest;fontStyle=4" parent="_YORlgkDfHFWjirhK1Dx-242" vertex="1">
          <mxGeometry y="86" width="290" height="26" as="geometry" />
        </mxCell>
        <mxCell id="EJJxbtkq4cgunzFUeAYS-21" value="- List&amp;lt;topping&amp;gt;toppings" style="text;html=1;align=center;verticalAlign=middle;resizable=0;points=[];autosize=1;strokeColor=none;fillColor=none;" parent="_YORlgkDfHFWjirhK1Dx-242" vertex="1">
          <mxGeometry y="112" width="290" height="30" as="geometry" />
        </mxCell>
        <mxCell id="_YORlgkDfHFWjirhK1Dx-247" value="+ addTopping();&#xa;+ removeTopping();&#xa;+ calculatePrice();&#xa;" style="text;align=left;verticalAlign=top;spacingLeft=4;spacingRight=4;overflow=hidden;rotatable=0;points=[[0,0.5],[1,0.5]];portConstraint=eastwest;" parent="_YORlgkDfHFWjirhK1Dx-242" vertex="1">
          <mxGeometry y="142" width="290" height="68" as="geometry" />
        </mxCell>
        <mxCell id="duyvFCxEx_6cM0iOeqCo-11" style="edgeStyle=orthogonalEdgeStyle;rounded=0;orthogonalLoop=1;jettySize=auto;html=1;entryX=1;entryY=0.75;entryDx=0;entryDy=0;" edge="1" parent="1" source="_YORlgkDfHFWjirhK1Dx-252" target="_YORlgkDfHFWjirhK1Dx-211">
          <mxGeometry relative="1" as="geometry" />
        </mxCell>
        <mxCell id="_YORlgkDfHFWjirhK1Dx-252" value="&lt;p style=&quot;margin:0px;margin-top:6px;text-align:center;&quot;&gt;&lt;/p&gt;&lt;p style=&quot;margin:0px;margin-left:8px;&quot;&gt;Class Drinks&amp;nbsp;&lt;/p&gt;&lt;p style=&quot;margin:0px;margin-left:8px;&quot;&gt;+ Flavor : String&amp;nbsp;&lt;br&gt;+ size: String&amp;nbsp;&lt;/p&gt;&lt;p style=&quot;margin:0px;margin-left:8px;&quot;&gt;&lt;br&gt;&lt;/p&gt;&lt;p style=&quot;margin:0px;margin-left:8px;&quot;&gt;&lt;span style=&quot;text-wrap-mode: nowrap;&quot;&gt;+ calculatePrice();&lt;/span&gt;&lt;/p&gt;" style="align=left;overflow=fill;html=1;dropTarget=0;whiteSpace=wrap;" parent="1" vertex="1">
          <mxGeometry x="228" y="288" width="180" height="90" as="geometry" />
        </mxCell>
        <mxCell id="_YORlgkDfHFWjirhK1Dx-254" value="&lt;p style=&quot;margin:0px;margin-top:4px;text-align:center;&quot;&gt;&lt;b&gt;Chips&lt;/b&gt;&lt;/p&gt;&lt;p style=&quot;margin:0px;margin-top:4px;text-align:center;&quot;&gt;&lt;b&gt;type: String&lt;/b&gt;&lt;/p&gt;&lt;p style=&quot;margin:0px;margin-top:4px;text-align:center;&quot;&gt;&lt;span style=&quot;text-align: left; text-wrap-mode: nowrap;&quot;&gt;+ calculatePrice();&lt;/span&gt;&lt;/p&gt;" style="verticalAlign=top;align=left;overflow=fill;html=1;whiteSpace=wrap;" parent="1" vertex="1">
          <mxGeometry x="190" y="30" width="140" height="60" as="geometry" />
        </mxCell>
        <mxCell id="EJJxbtkq4cgunzFUeAYS-8" value="Extends" style="edgeStyle=orthogonalEdgeStyle;rounded=0;orthogonalLoop=1;jettySize=auto;html=1;exitX=1;exitY=0;exitDx=0;exitDy=0;entryX=0.5;entryY=1;entryDx=0;entryDy=0;" parent="1" source="_YORlgkDfHFWjirhK1Dx-268" edge="1" target="_YORlgkDfHFWjirhK1Dx-217">
          <mxGeometry relative="1" as="geometry">
            <mxPoint x="-210" y="590" as="targetPoint" />
          </mxGeometry>
        </mxCell>
        <mxCell id="_YORlgkDfHFWjirhK1Dx-268" value="Sauces" style="swimlane;fontStyle=1;align=center;verticalAlign=top;childLayout=stackLayout;horizontal=1;startSize=26;horizontalStack=0;resizeParent=1;resizeParentMax=0;resizeLast=0;collapsible=1;marginBottom=0;whiteSpace=wrap;html=1;" parent="1" vertex="1">
          <mxGeometry x="-300" y="624" width="160" height="86" as="geometry" />
        </mxCell>
        <mxCell id="_YORlgkDfHFWjirhK1Dx-269" value="+ Flavor: String&amp;nbsp;" style="text;strokeColor=none;fillColor=none;align=left;verticalAlign=top;spacingLeft=4;spacingRight=4;overflow=hidden;rotatable=0;points=[[0,0.5],[1,0.5]];portConstraint=eastwest;whiteSpace=wrap;html=1;" parent="_YORlgkDfHFWjirhK1Dx-268" vertex="1">
          <mxGeometry y="26" width="160" height="26" as="geometry" />
        </mxCell>
        <mxCell id="_YORlgkDfHFWjirhK1Dx-270" value="" style="line;strokeWidth=1;fillColor=none;align=left;verticalAlign=middle;spacingTop=-1;spacingLeft=3;spacingRight=3;rotatable=0;labelPosition=right;points=[];portConstraint=eastwest;strokeColor=inherit;" parent="_YORlgkDfHFWjirhK1Dx-268" vertex="1">
          <mxGeometry y="52" width="160" height="8" as="geometry" />
        </mxCell>
        <mxCell id="_YORlgkDfHFWjirhK1Dx-271" value="getSauces();" style="text;strokeColor=none;fillColor=none;align=left;verticalAlign=top;spacingLeft=4;spacingRight=4;overflow=hidden;rotatable=0;points=[[0,0.5],[1,0.5]];portConstraint=eastwest;whiteSpace=wrap;html=1;" parent="_YORlgkDfHFWjirhK1Dx-268" vertex="1">
          <mxGeometry y="60" width="160" height="26" as="geometry" />
        </mxCell>
        <mxCell id="_YORlgkDfHFWjirhK1Dx-276" value="regular Toppings" style="swimlane;fontStyle=1;align=center;verticalAlign=top;childLayout=stackLayout;horizontal=1;startSize=26;horizontalStack=0;resizeParent=1;resizeParentMax=0;resizeLast=0;collapsible=1;marginBottom=0;whiteSpace=wrap;html=1;" parent="1" vertex="1">
          <mxGeometry x="-510" y="590" width="160" height="120" as="geometry" />
        </mxCell>
        <mxCell id="_YORlgkDfHFWjirhK1Dx-277" value="-regToppings: String" style="text;strokeColor=none;fillColor=none;align=left;verticalAlign=top;spacingLeft=4;spacingRight=4;overflow=hidden;rotatable=0;points=[[0,0.5],[1,0.5]];portConstraint=eastwest;whiteSpace=wrap;html=1;" parent="_YORlgkDfHFWjirhK1Dx-276" vertex="1">
          <mxGeometry y="26" width="160" height="26" as="geometry" />
        </mxCell>
        <mxCell id="_YORlgkDfHFWjirhK1Dx-278" value="" style="line;strokeWidth=1;fillColor=none;align=left;verticalAlign=middle;spacingTop=-1;spacingLeft=3;spacingRight=3;rotatable=0;labelPosition=right;points=[];portConstraint=eastwest;strokeColor=inherit;" parent="_YORlgkDfHFWjirhK1Dx-276" vertex="1">
          <mxGeometry y="52" width="160" height="8" as="geometry" />
        </mxCell>
        <mxCell id="_YORlgkDfHFWjirhK1Dx-279" value="+ calculatePrice(int size);" style="text;strokeColor=none;fillColor=none;align=left;verticalAlign=top;spacingLeft=4;spacingRight=4;overflow=hidden;rotatable=0;points=[[0,0.5],[1,0.5]];portConstraint=eastwest;whiteSpace=wrap;html=1;" parent="_YORlgkDfHFWjirhK1Dx-276" vertex="1">
          <mxGeometry y="60" width="160" height="60" as="geometry" />
        </mxCell>
        <mxCell id="_YORlgkDfHFWjirhK1Dx-255" value="IPricable" style="swimlane;fontStyle=0;childLayout=stackLayout;horizontal=1;startSize=26;fillColor=none;horizontalStack=0;resizeParent=1;resizeParentMax=0;resizeLast=0;collapsible=1;marginBottom=0;whiteSpace=wrap;html=1;" parent="1" vertex="1">
          <mxGeometry x="408" y="-80" width="142" height="52" as="geometry" />
        </mxCell>
        <mxCell id="_YORlgkDfHFWjirhK1Dx-282" value="ReceiptsFileManager  " style="swimlane;fontStyle=0;align=center;verticalAlign=top;childLayout=stackLayout;horizontal=1;startSize=26;horizontalStack=0;resizeParent=1;resizeLast=0;collapsible=1;marginBottom=0;rounded=0;shadow=0;strokeWidth=1;" parent="1" vertex="1">
          <mxGeometry x="380" y="447.5" width="160" height="143" as="geometry">
            <mxRectangle x="130" y="380" width="160" height="26" as="alternateBounds" />
          </mxGeometry>
        </mxCell>
        <mxCell id="EJJxbtkq4cgunzFUeAYS-20" value="saveReciept();" style="text;html=1;align=center;verticalAlign=middle;resizable=0;points=[];autosize=1;strokeColor=none;fillColor=none;" parent="_YORlgkDfHFWjirhK1Dx-282" vertex="1">
          <mxGeometry y="26" width="160" height="30" as="geometry" />
        </mxCell>
        <mxCell id="_YORlgkDfHFWjirhK1Dx-285" value="" style="line;html=1;strokeWidth=1;align=left;verticalAlign=middle;spacingTop=-1;spacingLeft=3;spacingRight=3;rotatable=0;labelPosition=right;points=[];portConstraint=eastwest;" parent="_YORlgkDfHFWjirhK1Dx-282" vertex="1">
          <mxGeometry y="56" width="160" height="8" as="geometry" />
        </mxCell>
        <mxCell id="duyvFCxEx_6cM0iOeqCo-3" style="edgeStyle=orthogonalEdgeStyle;rounded=0;orthogonalLoop=1;jettySize=auto;html=1;exitX=0.5;exitY=0;exitDx=0;exitDy=0;entryX=0;entryY=1;entryDx=0;entryDy=0;" edge="1" parent="1" source="EJJxbtkq4cgunzFUeAYS-3" target="_YORlgkDfHFWjirhK1Dx-242">
          <mxGeometry relative="1" as="geometry" />
        </mxCell>
        <mxCell id="EJJxbtkq4cgunzFUeAYS-3" value="&lt;p style=&quot;margin:0px;margin-top:6px;text-align:center;&quot;&gt;&lt;b&gt;abstract premium toppings&lt;/b&gt;&lt;/p&gt;&lt;hr size=&quot;1&quot; style=&quot;border-style:solid;&quot;&gt;&lt;p style=&quot;margin:0px;margin-left:8px;&quot;&gt;+ premiumToppingName: String&amp;nbsp;&lt;br&gt;+ calculatePrice(int size);&lt;/p&gt;&lt;p style=&quot;margin:0px;margin-left:8px;&quot;&gt;&lt;br&gt;&lt;/p&gt;" style="align=left;overflow=fill;html=1;dropTarget=0;whiteSpace=wrap;" parent="1" vertex="1">
          <mxGeometry x="-590" y="310" width="180" height="90" as="geometry" />
        </mxCell>
        <mxCell id="EJJxbtkq4cgunzFUeAYS-6" value="Extends" style="edgeStyle=orthogonalEdgeStyle;rounded=0;orthogonalLoop=1;jettySize=auto;html=1;exitX=1;exitY=0;exitDx=0;exitDy=0;entryX=0;entryY=0.355;entryDx=0;entryDy=0;entryPerimeter=0;" parent="1" source="_YORlgkDfHFWjirhK1Dx-276" target="_YORlgkDfHFWjirhK1Dx-248" edge="1">
          <mxGeometry relative="1" as="geometry" />
        </mxCell>
        <mxCell id="EJJxbtkq4cgunzFUeAYS-9" value="child meat" style="swimlane;fontStyle=0;childLayout=stackLayout;horizontal=1;startSize=26;fillColor=none;horizontalStack=0;resizeParent=1;resizeParentMax=0;resizeLast=0;collapsible=1;marginBottom=0;whiteSpace=wrap;html=1;" parent="1" vertex="1">
          <mxGeometry x="-1010" y="340" width="280" height="78" as="geometry" />
        </mxCell>
        <mxCell id="EJJxbtkq4cgunzFUeAYS-10" value="- premiumToppingName: String" style="text;strokeColor=none;fillColor=none;align=left;verticalAlign=top;spacingLeft=4;spacingRight=4;overflow=hidden;rotatable=0;points=[[0,0.5],[1,0.5]];portConstraint=eastwest;whiteSpace=wrap;html=1;" parent="EJJxbtkq4cgunzFUeAYS-9" vertex="1">
          <mxGeometry y="26" width="280" height="26" as="geometry" />
        </mxCell>
        <mxCell id="EJJxbtkq4cgunzFUeAYS-11" value="+ calculatePrice(int size);" style="text;strokeColor=none;fillColor=none;align=left;verticalAlign=top;spacingLeft=4;spacingRight=4;overflow=hidden;rotatable=0;points=[[0,0.5],[1,0.5]];portConstraint=eastwest;whiteSpace=wrap;html=1;" parent="EJJxbtkq4cgunzFUeAYS-9" vertex="1">
          <mxGeometry y="52" width="280" height="26" as="geometry" />
        </mxCell>
        <mxCell id="EJJxbtkq4cgunzFUeAYS-17" value="Extends" style="edgeStyle=orthogonalEdgeStyle;rounded=0;orthogonalLoop=1;jettySize=auto;html=1;entryX=0;entryY=1;entryDx=0;entryDy=0;" parent="1" source="EJJxbtkq4cgunzFUeAYS-13" target="EJJxbtkq4cgunzFUeAYS-3" edge="1">
          <mxGeometry relative="1" as="geometry" />
        </mxCell>
        <mxCell id="EJJxbtkq4cgunzFUeAYS-13" value="child cheese" style="swimlane;fontStyle=0;childLayout=stackLayout;horizontal=1;startSize=26;fillColor=none;horizontalStack=0;resizeParent=1;resizeParentMax=0;resizeLast=0;collapsible=1;marginBottom=0;whiteSpace=wrap;html=1;" parent="1" vertex="1">
          <mxGeometry x="-740" y="480" width="210" height="78" as="geometry" />
        </mxCell>
        <mxCell id="EJJxbtkq4cgunzFUeAYS-14" value="- premiumToppingName: String" style="text;strokeColor=none;fillColor=none;align=left;verticalAlign=top;spacingLeft=4;spacingRight=4;overflow=hidden;rotatable=0;points=[[0,0.5],[1,0.5]];portConstraint=eastwest;whiteSpace=wrap;html=1;" parent="EJJxbtkq4cgunzFUeAYS-13" vertex="1">
          <mxGeometry y="26" width="210" height="26" as="geometry" />
        </mxCell>
        <mxCell id="EJJxbtkq4cgunzFUeAYS-15" value="+ calculatePrice(int size);" style="text;strokeColor=none;fillColor=none;align=left;verticalAlign=top;spacingLeft=4;spacingRight=4;overflow=hidden;rotatable=0;points=[[0,0.5],[1,0.5]];portConstraint=eastwest;whiteSpace=wrap;html=1;" parent="EJJxbtkq4cgunzFUeAYS-13" vertex="1">
          <mxGeometry y="52" width="210" height="26" as="geometry" />
        </mxCell>
        <mxCell id="EJJxbtkq4cgunzFUeAYS-18" value="Extends&lt;span style=&quot;white-space: pre;&quot;&gt;&#x9;&lt;/span&gt;" style="edgeStyle=orthogonalEdgeStyle;rounded=0;orthogonalLoop=1;jettySize=auto;html=1;entryX=0;entryY=0;entryDx=0;entryDy=0;" parent="1" source="EJJxbtkq4cgunzFUeAYS-11" target="EJJxbtkq4cgunzFUeAYS-3" edge="1">
          <mxGeometry relative="1" as="geometry" />
        </mxCell>
        <mxCell id="duyvFCxEx_6cM0iOeqCo-1" style="edgeStyle=orthogonalEdgeStyle;rounded=0;orthogonalLoop=1;jettySize=auto;html=1;exitX=0;exitY=0;exitDx=0;exitDy=0;entryX=0.986;entryY=0.041;entryDx=0;entryDy=0;entryPerimeter=0;" edge="1" parent="1" source="_YORlgkDfHFWjirhK1Dx-255" target="_YORlgkDfHFWjirhK1Dx-242">
          <mxGeometry relative="1" as="geometry">
            <Array as="points">
              <mxPoint x="520" y="-80" />
              <mxPoint x="175" y="-80" />
              <mxPoint x="175" y="-30" />
              <mxPoint x="-174" y="-30" />
            </Array>
          </mxGeometry>
        </mxCell>
        <mxCell id="duyvFCxEx_6cM0iOeqCo-2" value="Implement calculatePrice" style="edgeLabel;html=1;align=center;verticalAlign=middle;resizable=0;points=[];" vertex="1" connectable="0" parent="duyvFCxEx_6cM0iOeqCo-1">
          <mxGeometry x="-0.2792" y="-1" relative="1" as="geometry">
            <mxPoint x="1" as="offset" />
          </mxGeometry>
        </mxCell>
        <mxCell id="duyvFCxEx_6cM0iOeqCo-9" value="Implements" style="edgeStyle=orthogonalEdgeStyle;rounded=0;orthogonalLoop=1;jettySize=auto;html=1;entryX=1;entryY=0;entryDx=0;entryDy=0;" edge="1" parent="1" source="_YORlgkDfHFWjirhK1Dx-258" target="_YORlgkDfHFWjirhK1Dx-254">
          <mxGeometry relative="1" as="geometry" />
        </mxCell>
        <mxCell id="duyvFCxEx_6cM0iOeqCo-10" value="Implements" style="edgeStyle=orthogonalEdgeStyle;rounded=0;orthogonalLoop=1;jettySize=auto;html=1;entryX=0.75;entryY=0;entryDx=0;entryDy=0;" edge="1" parent="1" source="_YORlgkDfHFWjirhK1Dx-258" target="_YORlgkDfHFWjirhK1Dx-252">
          <mxGeometry relative="1" as="geometry" />
        </mxCell>
        <mxCell id="_YORlgkDfHFWjirhK1Dx-258" value="&lt;span style=&quot;text-wrap-mode: nowrap;&quot;&gt;+ calculatePrice();&lt;/span&gt;" style="text;strokeColor=none;fillColor=none;align=left;verticalAlign=top;spacingLeft=4;spacingRight=4;overflow=hidden;rotatable=0;points=[[0,0.5],[1,0.5]];portConstraint=eastwest;whiteSpace=wrap;html=1;" parent="1" vertex="1">
          <mxGeometry x="408" y="-54" width="142" height="26" as="geometry" />
        </mxCell>
        <mxCell id="duyvFCxEx_6cM0iOeqCo-12" style="edgeStyle=orthogonalEdgeStyle;rounded=0;orthogonalLoop=1;jettySize=auto;html=1;entryX=1.006;entryY=0.06;entryDx=0;entryDy=0;entryPerimeter=0;" edge="1" parent="1" source="_YORlgkDfHFWjirhK1Dx-254" target="_YORlgkDfHFWjirhK1Dx-211">
          <mxGeometry relative="1" as="geometry" />
        </mxCell>
        <mxCell id="duyvFCxEx_6cM0iOeqCo-22" style="edgeStyle=orthogonalEdgeStyle;rounded=0;orthogonalLoop=1;jettySize=auto;html=1;exitX=0.25;exitY=0;exitDx=0;exitDy=0;entryX=0.75;entryY=1;entryDx=0;entryDy=0;" edge="1" parent="1" source="duyvFCxEx_6cM0iOeqCo-14" target="_YORlgkDfHFWjirhK1Dx-211">
          <mxGeometry relative="1" as="geometry" />
        </mxCell>
        <mxCell id="duyvFCxEx_6cM0iOeqCo-24" style="edgeStyle=orthogonalEdgeStyle;rounded=0;orthogonalLoop=1;jettySize=auto;html=1;exitX=0;exitY=0;exitDx=0;exitDy=0;" edge="1" parent="1" source="duyvFCxEx_6cM0iOeqCo-14">
          <mxGeometry relative="1" as="geometry">
            <mxPoint x="-190" y="230" as="targetPoint" />
          </mxGeometry>
        </mxCell>
        <mxCell id="duyvFCxEx_6cM0iOeqCo-14" value="Order" style="swimlane;fontStyle=0;align=center;verticalAlign=top;childLayout=stackLayout;horizontal=1;startSize=26;horizontalStack=0;resizeParent=1;resizeLast=0;collapsible=1;marginBottom=0;rounded=0;shadow=0;strokeWidth=1;" vertex="1" parent="1">
          <mxGeometry y="410" width="260" height="273.5" as="geometry">
            <mxRectangle x="130" y="380" width="160" height="26" as="alternateBounds" />
          </mxGeometry>
        </mxCell>
        <mxCell id="duyvFCxEx_6cM0iOeqCo-15" value="- List&lt;Sandwich&gt; sandwiches&#xa;- List&lt;Drink&gt; drinks" style="text;align=left;verticalAlign=top;spacingLeft=4;spacingRight=4;overflow=hidden;rotatable=0;points=[[0,0.5],[1,0.5]];portConstraint=eastwest;" vertex="1" parent="duyvFCxEx_6cM0iOeqCo-14">
          <mxGeometry y="26" width="260" height="26" as="geometry" />
        </mxCell>
        <mxCell id="duyvFCxEx_6cM0iOeqCo-16" value="- List&lt;Chip&gt; chips" style="text;align=left;verticalAlign=top;spacingLeft=4;spacingRight=4;overflow=hidden;rotatable=0;points=[[0,0.5],[1,0.5]];portConstraint=eastwest;rounded=0;shadow=0;html=0;" vertex="1" parent="duyvFCxEx_6cM0iOeqCo-14">
          <mxGeometry y="52" width="260" height="26" as="geometry" />
        </mxCell>
        <mxCell id="duyvFCxEx_6cM0iOeqCo-17" value="" style="line;html=1;strokeWidth=1;align=left;verticalAlign=middle;spacingTop=-1;spacingLeft=3;spacingRight=3;rotatable=0;labelPosition=right;points=[];portConstraint=eastwest;" vertex="1" parent="duyvFCxEx_6cM0iOeqCo-14">
          <mxGeometry y="78" width="260" height="8" as="geometry" />
        </mxCell>
        <mxCell id="duyvFCxEx_6cM0iOeqCo-19" value="checkOut();" style="text;html=1;align=center;verticalAlign=middle;resizable=0;points=[];autosize=1;strokeColor=none;fillColor=none;" vertex="1" parent="duyvFCxEx_6cM0iOeqCo-14">
          <mxGeometry y="86" width="260" height="30" as="geometry" />
        </mxCell>
        <mxCell id="duyvFCxEx_6cM0iOeqCo-18" value="&lt;span style=&quot;font-size: 12px; text-align: left;&quot;&gt;+ calculatePrice(int size);&lt;/span&gt;" style="text;html=1;align=center;verticalAlign=middle;resizable=0;points=[];autosize=1;strokeColor=none;fillColor=none;fontSize=16;" vertex="1" parent="duyvFCxEx_6cM0iOeqCo-14">
          <mxGeometry y="116" width="260" height="30" as="geometry" />
        </mxCell>
      </root>
    </mxGraphModel>
  </diagram>
</mxfile>
